HIERARCHY
ROOT Hips
{
	OFFSET 0.00000 0.00000 0.00000
	CHANNELS 6 Xposition Yposition Zposition Zrotation Yrotation Xrotation 
	JOINT LHipJoint
	{
		OFFSET 0 0 0
		CHANNELS 3 Zrotation Yrotation Xrotation
		JOINT LeftUpLeg
		{
			OFFSET 2.36090 -1.39315 1.24752
			CHANNELS 3 Zrotation Yrotation Xrotation
			JOINT LeftLeg
			{
				OFFSET 2.06810 -5.68207 0.00000
				CHANNELS 3 Zrotation Yrotation Xrotation
				JOINT LeftFoot
				{
					OFFSET 2.46631 -6.77613 0.00000
					CHANNELS 3 Zrotation Yrotation Xrotation
					JOINT LeftToeBase
					{
						OFFSET 0.26031 -0.71520 1.99545
						CHANNELS 3 Zrotation Yrotation Xrotation
						End Site
						{
							OFFSET 0.00000 -0.00000 1.05957
						}
					}
				}
			}
		}
	}
	JOINT RHipJoint
	{
		OFFSET 0 0 0
		CHANNELS 3 Zrotation Yrotation Xrotation
		JOINT RightUpLeg
		{
			OFFSET -2.25243 -1.39315 1.24752
			CHANNELS 3 Zrotation Yrotation Xrotation
			JOINT RightLeg
			{
				OFFSET -2.17343 -5.97145 0.00000
				CHANNELS 3 Zrotation Yrotation Xrotation
				JOINT RightFoot
				{
					OFFSET -2.52372 -6.93386 0.00000
					CHANNELS 3 Zrotation Yrotation Xrotation
					JOINT RightToeBase
					{
						OFFSET -0.22538 -0.61923 2.11447
						CHANNELS 3 Zrotation Yrotation Xrotation
						End Site
						{
							OFFSET -0.00000 -0.00000 1.10506
						}
					}
				}
			}
		}
	}
	JOINT LowerBack
	{
		OFFSET 0 0 0
		CHANNELS 3 Zrotation Yrotation Xrotation
		JOINT Spine
		{
			OFFSET 0.01594 2.13103 0.08007
			CHANNELS 3 Zrotation Yrotation Xrotation
			JOINT Spine1
			{
				OFFSET 0.01393 2.09723 0.18338
				CHANNELS 3 Zrotation Yrotation Xrotation
				JOINT Neck
				{
					OFFSET 0 0 0
					CHANNELS 3 Zrotation Yrotation Xrotation
					JOINT Neck1
					{
						OFFSET 0.05351 1.38915 0.32494
						CHANNELS 3 Zrotation Yrotation Xrotation
						JOINT Head
						{
							OFFSET 0.00711 1.45992 -0.21666
							CHANNELS 3 Zrotation Yrotation Xrotation
							End Site
							{
								OFFSET -0.00433 1.47702 -0.11056
							}
						}
					}
				}
				JOINT LeftShoulder
				{
					OFFSET 0 0 0
					CHANNELS 3 Zrotation Yrotation Xrotation
					JOINT LeftArm
					{
						OFFSET 2.87198 0.92249 0.11132
						CHANNELS 3 Zrotation Yrotation Xrotation
						JOINT LeftForeArm
						{
							OFFSET 5.52731 -0.00000 0.00000
							CHANNELS 3 Zrotation Yrotation Xrotation
							JOINT LeftHand
							{
								OFFSET 3.11059 -0.00000 0.00000
								CHANNELS 3 Zrotation Yrotation Xrotation
								JOINT LeftFingerBase
								{
									OFFSET 0 0 0
									CHANNELS 3 Zrotation Yrotation Xrotation
									JOINT LeftHandIndex1
									{
										OFFSET 0.41963 -0.00000 0.00000
										CHANNELS 3 Zrotation Yrotation Xrotation
										End Site
										{
											OFFSET 0.33831 -0.00000 0.00000
										}
									}
								}
								JOINT LThumb
								{
									OFFSET 0 0 0
									CHANNELS 3 Zrotation Yrotation Xrotation
									End Site
									{
										OFFSET 0.34348 -0.00000 0.34348
									}
								}
							}
						}
					}
				}
				JOINT RightShoulder
				{
					OFFSET 0 0 0
					CHANNELS 3 Zrotation Yrotation Xrotation
					JOINT RightArm
					{
						OFFSET -2.94710 0.68072 0.32187
						CHANNELS 3 Zrotation Yrotation Xrotation
						JOINT RightForeArm
						{
							OFFSET -5.25396 -0.00000 -0.00000
							CHANNELS 3 Zrotation Yrotation Xrotation
							JOINT RightHand
							{
								OFFSET -3.10567 -0.00000 0.00000
								CHANNELS 3 Zrotation Yrotation Xrotation
								JOINT RightFingerBase
								{
									OFFSET 0 0 0
									CHANNELS 3 Zrotation Yrotation Xrotation
									JOINT RightHandIndex1
									{
										OFFSET -0.49868 -0.00000 0.00000
										CHANNELS 3 Zrotation Yrotation Xrotation
										End Site
										{
											OFFSET -0.40204 -0.00000 0.00000
										}
									}
								}
								JOINT RThumb
								{
									OFFSET 0 0 0
									CHANNELS 3 Zrotation Yrotation Xrotation
									End Site
									{
										OFFSET -0.40818 -0.00000 0.40818
									}
								}
							}
						}
					}
				}
			}
		}
	}
}
MOTION
Frames: 9
Frame Time: .0083333
3.7879 9.7059 3.2628 0 0 0 0 0 0 -21 0 0 0 0 0 0 0 0 0 0 0 0 0 0 21 0 0 0 0 0 0 0 0 0 0 0 0 0 0 0 0 0 0 0 0 0 0 -16 0 0 21 0 0 11 0 0 0 -8 0 0 0 0 0 0 0 0 0 0 0 0 0 0 0 0 0 0 0 0 8 0 0 0 0 0 0 0 0 0 0 0 0 0 0 0 0 0
3.7879 9.7059 3.2628 0.0266 -4.8796 -3.0558 0.0000 0.0000 0.0000 -0.7068 -8.8012 -85.5020 18.2913 19.9299 84.9984 0.0762 -3.2556 7.4349 0.1433 -2.4400 -6.7232 0.0000 0.0000 0.0000 -1.9984 12.0334 -88.3433 -21.0890 -19.9715 93.1856 -0.0084 0.6991 2.1343 -0.0708 1.7161 -4.7216 0.0318 0.1021 -18.1544 1.7685 -0.1090 3.1757 1.9377 -0.1444 13.8464 3.9368 4.0742 -19.3057 -5.0973 6.1673 27.6234 -1.5957 2.4700 12.6981 0.0000 -0.0000 0.0000 -42.3005 32.6625 78.0858 88.2190 -59.9880 -58.4577 -0.0000 0.0000 -44.4770 53.7921 -10.9647 -14.5638 -7.1250 0.0000 -0.0000 17.7349 12.4289 -14.2168 0.0000 -0.0000 0.0000 29.5621 -27.5259 86.4735 -97.9340 59.7608 -66.8655 0.0000 -0.0000 -19.5711 -57.3190 -23.7173 32.0872 7.1250 -0.0000 -0.0000 -40.2267 -64.6927 20.7124
3.7900 9.7011 3.2569 -0.0323 -4.8245 -3.2313 0.0000 0.0000 0.0000 -0.6669 -8.8759 -85.3501 18.2955 19.9302 85.0109 0.0778 -3.2330 7.4591 0.1385 -2.3985 -6.6082 0.0000 0.0000 0.0000 -1.8818 11.9352 -88.1498 -21.0870 -19.9716 93.1795 -0.0079 0.7417 2.1199 -0.0680 1.6826 -4.6294 0.0246 0.0752 -17.8356 1.8171 -0.1486 3.3140 1.9831 -0.1662 13.8190 4.0441 4.2298 -19.2328 -5.0303 6.3361 27.5950 -1.5600 2.5671 12.6823 0.0000 -0.0000 0.0000 -42.7861 32.5761 77.4638 87.4095 -59.9746 -57.7568 -0.0000 0.0000 -44.0947 54.1013 -12.0287 -16.0616 -7.1250 0.0000 -0.0000 17.6296 10.7023 -14.7854 0.0000 -0.0000 0.0000 29.6244 -28.0627 86.5228 -97.5106 59.7858 -66.4997 0.0000 -0.0000 -18.9742 -57.7792 -23.2355 32.0453 7.1250 -0.0000 -0.0000 -40.6342 -64.2678 20.5619
3.7921 9.6964 3.2510 -0.0912 -4.7724 -3.4029 0.0000 0.0000 0.0000 -0.6392 -8.9453 -85.1948 18.2966 19.9303 85.0140 0.0789 -3.2155 7.4738 0.1397 -2.4090 -6.6374 0.0000 0.0000 0.0000 -1.7800 11.8538 -87.9607 -21.0832 -19.9718 93.1685 -0.0079 0.7546 2.1324 -0.0651 1.6460 -4.5282 0.0946 0.0740 -17.5648 1.7979 -0.1629 3.4552 1.9167 -0.1666 13.8218 5.0105 4.3296 -19.4959 -5.9288 6.4429 27.7999 -2.0507 2.5885 12.9020 -0.0000 -0.0000 0.0000 -43.1846 32.3210 76.8389 86.4524 -59.9524 -56.9282 -0.0000 0.0000 -43.4488 54.3301 -12.6557 -16.9742 -7.1250 0.0000 -0.0000 17.5940 9.6652 -15.1420 -0.0000 -0.0000 0.0000 29.8534 -28.4718 86.4751 -96.8411 59.8224 -65.9211 0.0000 -0.0000 -18.1474 -58.4964 -23.1205 32.6469 7.1250 -0.0000 -0.0000 -41.9930 -64.3664 21.4618
3.7948 9.6977 3.2495 -0.1608 -4.7582 -3.3868 0.0000 0.0000 0.0000 -0.5658 -8.9757 -85.2249 18.2996 19.9305 85.0229 0.0795 -3.2029 7.4777 0.1376 -2.3909 -6.5873 0.0000 0.0000 0.0000 -1.6978 11.8155 -87.9336 -21.0693 -19.9726 93.1278 -0.0080 0.7619 2.1469 -0.0649 1.6439 -4.5226 0.1810 0.0845 -17.4875 1.8182 -0.1712 3.5060 1.8878 -0.1647 13.8350 4.8268 4.4672 -19.1659 -5.5320 6.5831 27.6593 -1.8445 2.6928 12.7614 -0.0000 -0.0000 0.0000 -43.6815 31.9976 76.4139 85.3501 -59.9181 -55.9741 -0.0000 0.0000 -42.4459 55.2007 -13.1302 -18.1003 -7.1250 0.0000 -0.0000 17.9728 8.5859 -15.9135 -0.0000 -0.0000 0.0000 30.1323 -28.7754 86.3181 -95.8096 59.8721 -65.0291 0.0000 -0.0000 -17.2622 -59.2399 -22.7829 33.0493 7.1250 -0.0000 -0.0000 -43.1553 -64.2085 22.0079
3.7973 9.6960 3.2464 -0.2233 -4.7328 -3.4617 0.0000 0.0000 0.0000 -0.5163 -9.0138 -85.1670 18.3039 19.9309 85.0356 0.0801 -3.1923 7.4856 0.1365 -2.3810 -6.5597 0.0000 0.0000 0.0000 -1.6054 11.7612 -87.8297 -21.0602 -19.9730 93.1012 -0.0079 0.7757 2.1555 -0.0635 1.6258 -4.4725 0.2558 0.0901 -17.3151 1.8278 -0.1811 3.5944 1.8526 -0.1640 13.8349 5.0209 4.5928 -19.0189 -5.5609 6.7130 27.6188 -1.8679 2.7707 12.7322 0.0000 0.0000 0.0000 -44.1357 31.6957 75.9543 84.4304 -59.8825 -55.1785 -0.0000 0.0000 -41.6880 55.9614 -13.8310 -19.4891 -7.1250 0.0000 -0.0000 18.2163 7.1778 -16.6863 0.0000 0.0000 0.0000 30.4407 -29.0463 86.1048 -94.8600 59.9106 -64.2077 0.0000 -0.0000 -16.3993 -59.9378 -22.5536 33.5309 7.1250 -0.0000 -0.0000 -44.3649 -64.1656 22.7004
3.7999 9.6947 3.2439 -0.2865 -4.7149 -3.5265 0.0000 0.0000 0.0000 -0.4656 -9.0405 -85.1195 18.3103 19.9314 85.0542 0.0804 -3.1872 7.4892 0.1354 -2.3713 -6.5329 0.0000 0.0000 0.0000 -1.5131 11.7152 -87.7347 -21.0503 -19.9735 93.0722 -0.0079 0.7891 2.1639 -0.0622 1.6093 -4.4271 0.3427 0.1008 -17.1649 1.8348 -0.1866 3.6794 1.8091 -0.1601 13.8439 5.2167 4.7113 -18.8234 -5.5975 6.8348 27.5385 -1.8964 2.8456 12.6771 0.0000 0.0000 0.0000 -44.5779 31.3643 75.5559 83.6099 -59.8451 -54.4689 -0.0000 0.0000 -40.9302 56.8444 -14.4748 -20.9377 -7.1250 0.0000 -0.0000 18.5372 5.7665 -17.5475 0.0000 0.0000 0.0000 30.8224 -29.2043 85.7751 -93.8381 59.9443 -63.3233 0.0000 -0.0000 -15.5431 -60.6249 -22.4027 34.1002 7.1250 -0.0000 -0.0000 -45.6738 -64.2129 23.5561
3.8024 9.6934 3.2420 -0.3502 -4.7027 -3.5991 0.0000 0.0000 0.0000 -0.4168 -9.0573 -85.0640 18.3187 19.9321 85.0790 0.0804 -3.1879 7.4895 0.1342 -2.3608 -6.5040 0.0000 0.0000 0.0000 -1.4158 11.6742 -87.6301 -21.0413 -19.9740 93.0459 -0.0078 0.8057 2.1660 -0.0612 1.5963 -4.3913 0.4359 0.1127 -17.0165 1.8417 -0.1918 3.7664 1.7622 -0.1555 13.8560 5.4011 4.8265 -18.6016 -5.6283 6.9542 27.4349 -1.9216 2.9199 12.6068 -0.0000 -0.0000 0.0000 -44.9977 31.0400 75.2195 82.9239 -59.8099 -53.8758 -0.0000 0.0000 -40.2151 57.7733 -15.0371 -22.3703 -7.1250 0.0000 -0.0000 18.8979 4.4182 -18.4393 -0.0000 -0.0000 0.0000 31.2585 -29.2414 85.3526 -92.8153 59.9700 -62.4379 0.0000 -0.0000 -14.7852 -61.2730 -22.3391 34.7400 7.1250 -0.0000 -0.0000 -47.0458 -64.3497 24.5620
3.8050 9.6919 3.2405 -0.4147 -4.6967 -3.6878 0.0000 0.0000 0.0000 -0.3701 -9.0640 -84.9917 18.3294 19.9330 85.1102 0.0800 -3.1950 7.4858 0.1331 -2.3512 -6.4772 0.0000 0.0000 0.0000 -1.3117 11.6382 -87.5082 -21.0329 -19.9744 93.0213 -0.0076 0.8265 2.1628 -0.0605 1.5871 -4.3660 0.5335 0.1229 -16.8639 1.8489 -0.2001 3.8621 1.7122 -0.1520 13.8761 5.6370 4.9387 -18.3883 -5.7269 7.0738 27.3235 -1.9814 2.9905 12.5410 0.0000 0.0000 0.0000 -45.3882 30.7519 74.9253 82.3824 -59.7796 -53.4079 -0.0000 0.0000 -39.5778 58.6378 -15.4437 -23.6007 -7.1250 0.0000 -0.0000 19.2596 3.3078 -19.2560 0.0000 0.0000 0.0000 31.7226 -29.1553 84.8726 -91.8749 59.9867 -61.6236 0.0000 -0.0000 -14.2033 -61.8768 -22.3386 35.4178 7.1250 -0.0000 -0.0000 -48.4444 -64.5438 25.6689
